<svg class="variation-svg fade-enter-done" viewBox="-21.0800018310547 54.56999969482422 617.1600036621094 435.82500076293945" xmlns="http://www.w3.org/2000/svg" xmlns:xlink="http://www.w3.org/1999/xlink" style="transform: scale(1);">
<image height="230" width="230" y="124.56999969482422" x="172.5" preserveAspectRatio="xMinYMin" href="https://raw.githubusercontent.com/arjungarg07/arjungarg07/main/assets/logo.png" xlink:href="https://raw.githubusercontent.com/arjungarg07/arjungarg07/main/assets/logo.png" style="position: absolute"></image>
<g><svg data-layer-type="text" y="386.7849998474121" viewBox="1.6500000953674316 16.06999969482422 477.1600036621094 33.61000061035156" x="48.9199981689453" height="33.61000061035156" width="477.1600036621094" style="position: absolute;"><g data-horizontal-grow="center" style="fill: rgb(52, 52, 52); font-size: 47px; font-weight: 600; font-style: normal; font-family: Poppins; dominant-baseline: hanging; text-transform: uppercase; letter-spacing: 13px; fill-opacity: 1;"><path d="M1.65 32.90Q1.65 28.06 3.83 24.23Q6.02 20.40 9.80 18.26Q13.58 16.12 18.28 16.12L18.28 16.12Q23.78 16.12 27.92 18.94Q32.05 21.76 33.70 26.74L33.70 26.74L26.13 26.74Q25.00 24.39 22.96 23.22Q20.91 22.04 18.24 22.04L18.24 22.04Q15.37 22.04 13.14 23.38Q10.90 24.72 9.66 27.17Q8.41 29.61 8.41 32.90L8.41 32.90Q8.41 36.14 9.66 38.61Q10.90 41.08 13.14 42.42Q15.37 43.76 18.24 43.76L18.24 43.76Q20.91 43.76 22.96 42.56Q25.00 41.36 26.13 39.01L26.13 39.01L33.70 39.01Q32.05 44.04 27.94 46.84Q23.83 49.63 18.28 49.63L18.28 49.63Q13.58 49.63 9.80 47.49Q6.02 45.36 3.83 41.55Q1.65 37.74 1.65 32.90L1.65 32.90ZM76.87 49.35L69.26 49.35L62.02 36.57L58.92 36.57L58.92 49.35L52.34 49.35L52.34 16.54L64.65 16.54Q68.46 16.54 71.14 17.88Q73.82 19.22 75.16 21.50Q76.50 23.78 76.50 26.60L76.50 26.60Q76.50 29.85 74.62 32.45Q72.74 35.06 69.02 36.05L69.02 36.05L76.87 49.35ZM58.92 22.00L58.92 31.63L64.42 31.63Q67.10 31.63 68.41 30.34Q69.73 29.05 69.73 26.74L69.73 26.74Q69.73 24.49 68.41 23.24Q67.10 22.00 64.42 22.00L64.42 22.00L58.92 22.00ZM114.22 16.54L121.55 16.54L110.46 37.93L110.46 49.35L103.88 49.35L103.88 37.93L92.74 16.54L100.17 16.54L107.22 31.54L114.22 16.54ZM162.28 26.70Q162.28 29.33 161.04 31.63Q159.79 33.93 157.13 35.34Q154.48 36.75 150.44 36.75L150.44 36.75L144.94 36.75L144.94 49.35L138.36 49.35L138.36 16.54L150.44 16.54Q154.24 16.54 156.92 17.86Q159.60 19.18 160.94 21.48Q162.28 23.78 162.28 26.70L162.28 26.70ZM150.16 31.44Q152.88 31.44 154.20 30.20Q155.51 28.95 155.51 26.70L155.51 26.70Q155.51 21.90 150.16 21.90L150.16 21.90L144.94 21.90L144.94 31.44L150.16 31.44ZM178.19 16.54L202.26 16.54L202.26 21.86L193.52 21.86L193.52 49.35L186.94 49.35L186.94 21.86L178.19 21.86L178.19 16.54ZM235.28 49.68Q230.68 49.68 226.82 47.52Q222.97 45.36 220.71 41.52Q218.46 37.69 218.46 32.85L218.46 32.85Q218.46 28.06 220.71 24.23Q222.97 20.40 226.82 18.24Q230.68 16.07 235.28 16.07L235.28 16.07Q239.93 16.07 243.76 18.24Q247.59 20.40 249.83 24.23Q252.06 28.06 252.06 32.85L252.06 32.85Q252.06 37.69 249.83 41.52Q247.59 45.36 243.74 47.52Q239.89 49.68 235.28 49.68L235.28 49.68ZM235.28 43.80Q238.24 43.80 240.50 42.46Q242.75 41.13 244.02 38.63Q245.29 36.14 245.29 32.85L245.29 32.85Q245.29 29.56 244.02 27.10Q242.75 24.63 240.50 23.31Q238.24 22.00 235.28 22.00L235.28 22.00Q232.32 22.00 230.04 23.31Q227.76 24.63 226.49 27.10Q225.22 29.56 225.22 32.85L225.22 32.85Q225.22 36.14 226.49 38.63Q227.76 41.13 230.04 42.46Q232.32 43.80 235.28 43.80L235.28 43.80ZM316.41 49.35L314.25 43.10L301.18 43.10L299.02 49.35L292.11 49.35L303.91 16.50L311.57 16.50L323.37 49.35L316.41 49.35ZM302.97 37.84L312.46 37.84L307.72 24.11L302.97 37.84ZM347.37 16.54L347.37 44.13L358.18 44.13L358.18 49.35L340.79 49.35L340.79 16.54L347.37 16.54ZM394.39 21.86L381.94 21.86L381.94 30.08L392.98 30.08L392.98 35.30L381.94 35.30L381.94 43.99L394.39 43.99L394.39 49.35L375.36 49.35L375.36 16.50L394.39 16.50L394.39 21.86ZM437.90 49.35L430.28 49.35L423.05 36.57L419.94 36.57L419.94 49.35L413.36 49.35L413.36 16.54L425.68 16.54Q429.48 16.54 432.16 17.88Q434.84 19.22 436.18 21.50Q437.52 23.78 437.52 26.60L437.52 26.60Q437.52 29.85 435.64 32.45Q433.76 35.06 430.05 36.05L430.05 36.05L437.90 49.35ZM419.94 22.00L419.94 31.63L425.44 31.63Q428.12 31.63 429.44 30.34Q430.75 29.05 430.75 26.74L430.75 26.74Q430.75 24.49 429.44 23.24Q428.12 22.00 425.44 22.00L425.44 22.00L419.94 22.00ZM454.75 16.54L478.81 16.54L478.81 21.86L470.07 21.86L470.07 49.35L463.49 49.35L463.49 21.86L454.75 21.86L454.75 16.54Z" transform="translate(0, 0)"></path></g></svg></g></svg>